<svg id="Layer_1" enable-background="new 0 0 256 256" height="512" viewBox="0 0 256 256" width="512" xmlns="http://www.w3.org/2000/svg"><g><g><path d="m185.338 252h-165.84c-5.523 0-10-4.477-10-10v-228c0-5.523 4.477-10 10-10h165.84c5.523 0 10 4.477 10 10v228c0 5.523-4.477 10-10 10z" fill="#f4efed"/></g><g><path d="m38.536 28.607h28.987v28.987h-28.987z" fill="#fcc24c"/></g><g><path d="m38.536 71.057h28.987v28.987h-28.987z" fill="#fcc24c"/></g><g><path d="m38.536 113.507h28.987v28.987h-28.987z" fill="#fcc24c"/></g><g><path d="m38.536 155.956h28.987v28.987h-28.987z" fill="#fcc24c"/></g><g><path d="m38.536 198.406h28.987v28.987h-28.987z" fill="#fcc24c"/></g><g><path d="m185.338 4h-10c5.523 0 10 4.477 10 10v228c0 5.523-4.477 10-10 10h10c5.523 0 10-4.477 10-10v-228c0-5.523-4.477-10-10-10z" fill="#d6d1cf"/></g><g><path d="m19.498 252h10c-5.523 0-10-4.477-10-10v-228c0-5.523 4.477-10 10-10h-10c-5.523 0-10 4.477-10 10v228c0 5.523 4.478 10 10 10z" fill="#fff"/></g><g><path d="m185.338 254h-165.839c-6.617 0-12-5.383-12-12v-228c0-6.617 5.383-12 12-12h165.839c6.617 0 12 5.383 12 12v228c0 6.617-5.383 12-12 12zm-165.839-248c-4.411 0-8 3.589-8 8v228c0 4.411 3.589 8 8 8h165.839c4.411 0 8-3.589 8-8v-228c0-4.411-3.589-8-8-8z" fill="#690589"/></g><g><path d="m19.499 68.719c-1.104 0-2-.896-2-2v-12c0-1.104.896-2 2-2s2 .896 2 2v12c0 1.105-.896 2-2 2z" fill="#690589"/></g><g><path d="m166.301 45.101h-86.357c-1.104 0-2-.896-2-2s.896-2 2-2h86.356c1.104 0 2 .896 2 2s-.895 2-1.999 2z" fill="#690589"/></g><g><path d="m166.301 87.55h-86.357c-1.104 0-2-.896-2-2s.896-2 2-2h86.356c1.104 0 2 .896 2 2s-.895 2-1.999 2z" fill="#690589"/></g><g><path d="m166.301 130h-86.357c-1.104 0-2-.896-2-2s.896-2 2-2h86.356c1.104 0 2 .896 2 2s-.895 2-1.999 2z" fill="#690589"/></g><g><path d="m166.301 172.45h-86.357c-1.104 0-2-.896-2-2s.896-2 2-2h86.356c1.104 0 2 .896 2 2s-.895 2-1.999 2z" fill="#690589"/></g><g><path d="m166.301 214.899h-86.357c-1.104 0-2-.896-2-2s.896-2 2-2h86.356c1.104 0 2 .896 2 2s-.895 2-1.999 2z" fill="#690589"/></g><g><path d="m67.522 59.594h-28.986c-1.104 0-2-.896-2-2v-28.987c0-1.104.896-2 2-2h28.987c1.104 0 2 .896 2 2v28.987c-.001 1.104-.896 2-2.001 2zm-26.986-4h24.987v-24.987h-24.987z" fill="#690589"/></g><g><path d="m51.828 50.854c-.532 0-1.044-.212-1.42-.592l-6.43-6.488 2.841-2.815 4.857 4.9 8.021-9.939 3.112 2.512-9.425 11.678c-.357.443-.886.712-1.454.742-.034.001-.069.002-.102.002z" fill="#690589"/></g><g><path d="m67.522 102.043h-28.986c-1.104 0-2-.896-2-2v-28.986c0-1.104.896-2 2-2h28.987c1.104 0 2 .896 2 2v28.987c-.001 1.104-.896 1.999-2.001 1.999zm-26.986-4h24.987v-24.986h-24.987z" fill="#690589"/></g><g><path d="m51.828 93.304c-.532 0-1.044-.212-1.42-.592l-6.43-6.488 2.841-2.815 4.857 4.9 8.021-9.939 3.112 2.512-9.425 11.678c-.357.443-.886.712-1.454.742-.034.001-.069.002-.102.002z" fill="#690589"/></g><g><path d="m67.522 144.493h-28.986c-1.104 0-2-.896-2-2v-28.986c0-1.104.896-2 2-2h28.987c1.104 0 2 .896 2 2v28.986c-.001 1.105-.896 2-2.001 2zm-26.986-4h24.987v-24.986h-24.987z" fill="#690589"/></g><g><path d="m51.828 135.753c-.532 0-1.044-.212-1.42-.592l-6.43-6.488 2.841-2.815 4.857 4.9 8.021-9.939 3.112 2.512-9.425 11.678c-.357.443-.886.712-1.454.742-.034.001-.069.002-.102.002z" fill="#690589"/></g><g><path d="m67.522 186.943h-28.986c-1.104 0-2-.896-2-2v-28.987c0-1.104.896-2 2-2h28.987c1.104 0 2 .896 2 2v28.987c-.001 1.105-.896 2-2.001 2zm-26.986-4h24.987v-24.987h-24.987z" fill="#690589"/></g><g><path d="m51.828 178.203c-.532 0-1.044-.212-1.42-.592l-6.43-6.488 2.841-2.815 4.857 4.9 8.021-9.939 3.112 2.512-9.425 11.678c-.357.443-.886.712-1.454.742-.034.001-.069.002-.102.002z" fill="#690589"/></g><g><path d="m67.522 229.393h-28.986c-1.104 0-2-.896-2-2v-28.987c0-1.104.896-2 2-2h28.987c1.104 0 2 .896 2 2v28.987c-.001 1.105-.896 2-2.001 2zm-26.986-4h24.987v-24.987h-24.987z" fill="#690589"/></g><g><path d="m51.828 220.653c-.532 0-1.044-.212-1.42-.592l-6.43-6.488 2.841-2.815 4.857 4.9 8.021-9.938 3.112 2.512-9.425 11.678c-.357.443-.886.712-1.454.742-.034 0-.069.001-.102.001z" fill="#690589"/></g><g><path d="m195.338 252c-9.285 0-16.529-8.037-15.568-17.272l7.511-72.172h16.114l7.511 72.172c.961 9.235-6.283 17.272-15.568 17.272z" fill="#526faa"/></g><g><path d="m210.906 234.728-7.511-72.172h-4.837l7.511 72.172c.876 8.416-5.063 15.833-13.15 17.084.788.122 1.594.188 2.418.188 9.286 0 16.53-8.037 15.569-17.272z" fill="#34518c"/></g><g><path d="m179.77 234.728 7.511-72.172h4.837l-7.511 72.172c-.876 8.416 5.063 15.833 13.15 17.084-.787.122-1.594.188-2.418.188-9.286 0-16.53-8.037-15.569-17.272z" fill="#708dc8"/></g><g><path d="m195.338 254c-4.991 0-9.77-2.126-13.112-5.833-3.342-3.708-4.962-8.681-4.445-13.646l7.511-72.172c.106-1.019.965-1.793 1.989-1.793h16.114c1.024 0 1.883.774 1.989 1.793l7.511 72.172c.517 4.964-1.104 9.938-4.445 13.645-3.342 3.708-8.121 5.834-13.112 5.834zm-6.255-89.444-7.324 70.379c-.399 3.839.854 7.686 3.438 10.553s6.281 4.512 10.141 4.512 7.557-1.645 10.141-4.512 3.837-6.713 3.438-10.553l-7.324-70.379z" fill="#690589"/></g><g><ellipse cx="195.338" cy="118.108" fill="#fcc24c" rx="51.164" ry="51.164" transform="matrix(.162 -.987 .987 .162 47.185 291.766)"/></g><g><path d="m194.15 169.085c.881.072 1.769.118 2.661.149 27.574-.782 49.69-23.364 49.69-51.126 0-27.764-22.118-50.346-49.692-51.126-.891.031-1.779.078-2.659.149 26.285 2.144 46.952 24.139 46.952 50.977 0 26.837-20.667 48.833-46.952 50.977z" fill="#dea42e"/></g><g><path d="m196.526 67.131c-.881-.072-1.769-.118-2.662-.149-27.574.782-49.69 23.364-49.69 51.126 0 27.764 22.118 50.346 49.692 51.127.891-.031 1.779-.078 2.659-.149-26.285-2.144-46.953-24.139-46.953-50.977.001-26.839 20.669-48.835 46.954-50.978z" fill="#fce06a"/></g><g><path d="m195.338 171.246c-13.614 0-27.228-5.182-37.592-15.546-20.729-20.728-20.729-54.456 0-75.185s54.457-20.729 75.185 0c20.729 20.729 20.729 54.457 0 75.185-10.365 10.364-23.979 15.546-37.593 15.546zm0-102.279c-12.591 0-25.178 4.791-34.764 14.376-19.168 19.169-19.168 50.359 0 69.528 19.17 19.168 50.359 19.167 69.528 0 19.168-19.169 19.168-50.359 0-69.528-9.583-9.583-22.176-14.376-34.764-14.376z" fill="#690589"/></g><g><ellipse cx="195.338" cy="118.108" fill="#f4efed" rx="37.746" ry="37.746" transform="matrix(.915 -.404 .404 .915 -31.071 89.035)"/></g><g><path d="m195.338 157.835c-10.178 0-20.356-3.874-28.105-11.623-15.497-15.497-15.497-40.713 0-56.209 7.507-7.507 17.488-11.642 28.105-11.642s20.598 4.135 28.105 11.642c15.497 15.497 15.497 40.712 0 56.209-7.749 7.749-17.927 11.623-28.105 11.623zm0-75.474c-9.548 0-18.525 3.719-25.277 10.47-13.937 13.938-13.937 36.615 0 50.553 13.938 13.937 36.616 13.937 50.554 0 13.937-13.938 13.937-36.616 0-50.553-6.752-6.751-15.729-10.47-25.277-10.47z" fill="#690589"/></g></g></svg>